<!-- Litsi Logo V2 -->
<svg width="160" height="45" xmlns="http://www.w3.org/2000/svg">
 <g data-v-0dd9719b="" fill="#243859" class="basesvg" 
 ><g data-gra="path-name" fill-rule="" class="tp-name"><g transform="scale(1)"><g><path d="M5.1-0.18L10.02-0.12C14.42 0.07 16.82 0 22.98 0L31.68 0C33.3 0 35.88 0.05 35.88-1.26L35.88-12.84C35.88-13.51 35.12-14.04 34.38-14.04 32.18-14.04 30.54-14.02 29.46-13.98L25.08-13.98C24.32-13.98 23.76-14.04 23.76-14.64L23.76-31.38 23.7-31.74C23.7-32.33 23.4-33.84 23.4-34.38 23.4-34.66 23.7-36.24 23.7-36.6L23.76-37.08C23.76-39.4 23.03-40.14 20.85-40.14L16.2-40.14C15.56-40.18 14.58-40.2 13.26-40.2 10.64-40.2 7.81-40.38 5.46-40.38 4.16-40.38 3.84-38.49 3.84-37.14L3.84-35.76C3.72-33.6 3.66-32.26 3.66-31.74 3.58-29.26 3.54-27.2 3.54-25.56L3.6-20.64 3.6-1.68C3.6-0.97 4.39-0.18 5.1-0.18ZM43.26 0.78L44.64 0.66 46.08 0.48 47.64 0.18 52.98 0.18C53.02 0.02 53.14-0.06 53.34-0.06L54.18 0C54.9 0.12 55.36 0.18 55.56 0.18 55.6 0.14 55.74 0.08 55.98 0L56.28 0C56.28-0.04 56.32-0.06 56.4-0.06 56.49-0.03 56.59-0.01 56.64 0.06 58.41 0.06 58.26-1.7 58.26-3.54 58.22-4.18 58.26-5 58.38-6L58.56-8.28 58.56-19.98C58.56-20.82 58.62-21.96 58.74-23.4 58.79-23.88 58.98-24.34 58.98-24.66L58.8-34.98 54.36-34.98C54.19-34.98 53.77-35.16 53.58-35.16L53.52-35.16C53.48-35.16 53.44-35.14 53.4-35.1 53.24-35.1 53.12-35.08 53.04-35.04 52.88-35.04 52.78-35.02 52.74-34.98L52.5-34.98C52.34-34.98 52.2-35.04 52.08-35.16L49.44-35.16 49.2-34.98C47.92-34.98 46.98-35.02 46.38-35.1 45.71-35.1 44.31-35.28 43.56-35.28 42.5-35.28 40.8-35.08 40.8-34.38L40.8-19.8C40.8-18.12 40.92-15.52 41.16-12L41.34-9.72C41.56-6.32 41.7-5.28 41.7-3 41.7-1.44 42.18 0.78 43.26 0.78ZM89.7-13.8L89.7-15.48C89.66-15.88 89.64-16.48 89.64-17.28L89.64-19.08C89.64-20.85 89.95-23.28 90.96-23.28L93.24-23.28C95.36-23.28 97.08-23.14 98.4-22.86 98.8-22.99 99.54-23.66 99.54-24.18L99.54-34.38C99.54-34.46 99.29-34.63 99.24-34.68L98.4-34.74C97.96-34.78 97.14-34.8 95.94-34.8L93.6-34.8 92.04-34.74C91.05-34.74 89.82-34.98 88.5-34.98 88.26-34.98 88-34.94 87.72-34.86 87.36-34.86 87.1-34.82 86.94-34.74L85.44-34.74C84.48-34.74 83.74-34.76 83.22-34.8L71.04-34.8C70.12-34.76 68.78-34.74 67.02-34.74L65.82-34.74 64.74-34.8C64.52-34.68 64.45-34.41 64.44-34.08L64.44-32.88C64.44-32.28 64.4-31.84 64.32-31.56L64.32-30.78C64.32-27.78 64.36-23.04 66.3-23.04L72.24-23.04 72.42-22.86C72.42-19.38 72.4-16.84 72.36-15.24L72.3-8.64C72.3-6.12 72.38-4.2 72.54-2.88 72.66-1.4 72.9-0.38 73.26 0.18L86.04 0.18C86.2 0.18 86.76 0.12 87.72 0 88.6-0.08 89.06-0.74 89.1-1.98 89.18-2.78 89.22-3.78 89.22-4.98 89.22-5.82 89.26-6.48 89.34-6.96 89.34-8.98 89.7-11.49 89.7-13.8ZM134.52-28.44C134.52-28.6 134.48-28.72 134.4-28.8 134.28-31.88 134.16-33.74 134.04-34.38 133.75-36.52 132.73-36.03 130.98-36.66 126.58-36.66 122.9-36.5 119.94-36.18 111.86-35.19 104.4-32.31 104.4-24.3 104.4-23.42 104.7-21.92 105.3-19.8 106.02-17.72 106.88-16.68 107.88-16.68L107.88-16.38C107.88-16.1 108.06-15.86 108.42-15.66 108.59-15.49 110.16-14.65 110.16-14.52 110.16-14.48 110.12-14.46 110.04-14.46 110.55-14.21 111.6-13.66 111.6-13.44 112.32-13.12 112.96-12.9 113.52-12.78L115.44-12.06C116.66-11.55 117.78-10.89 117.78-9.36 117.78-7.88 115.79-7.74 113.94-7.74 113.5-7.78 112.88-7.8 112.08-7.8 109.56-7.8 107-8.3 104.4-9.3 103.98-9.22 103.92-8.93 103.92-8.4L103.92-8.1 105.24-0.66C105.32-0.46 105.52-0.3 105.84-0.18 106.2 0.06 106.62 0.2 107.1 0.24 107.98 0.52 109.08 0.76 110.4 0.96L111.78 1.2 112.5 1.38 121.32 1.2C122.68 1.2 124.1 0.97 125.58 0.51 130.13-0.9 134.18-3.96 135.72-7.86 136-8.66 136.14-9.62 136.14-10.74 136.14-11.98 135.96-12.98 135.6-13.74 134.19-17.46 130.16-19.68 126.72-21.18 125-21.98 123.96-22.48 123.6-22.68 123.06-23.01 122.88-23.16 122.88-23.88 122.88-24.4 123.08-24.9 123.48-25.38 124.75-26.81 126.98-26.92 129.96-27.3L131.34-27.48C131.97-27.48 134.52-27.74 134.52-28.44ZM144.3 0.78L145.68 0.66 147.12 0.48 148.68 0.18 154.02 0.18C154.06 0.02 154.18-0.06 154.38-0.06L155.22 0C155.94 0.12 156.4 0.18 156.6 0.18 156.64 0.14 156.78 0.08 157.02 0L157.32 0C157.32-0.04 157.36-0.06 157.44-0.06 157.53-0.03 157.63-0.01 157.68 0.06 159.45 0.06 159.3-1.7 159.3-3.54 159.26-4.18 159.3-5 159.42-6L159.6-8.28 159.6-19.98C159.6-20.82 159.66-21.96 159.78-23.4 159.83-23.88 160.02-24.34 160.02-24.66L159.84-34.98 155.4-34.98C155.23-34.98 154.81-35.16 154.62-35.16L154.56-35.16C154.52-35.16 154.48-35.14 154.44-35.1 154.28-35.1 154.16-35.08 154.08-35.04 153.92-35.04 153.82-35.02 153.78-34.98L153.54-34.98C153.38-34.98 153.24-35.04 153.12-35.16L150.48-35.16 150.24-34.98C148.96-34.98 148.02-35.02 147.42-35.1 146.75-35.1 145.35-35.28 144.6-35.28 143.54-35.28 141.84-35.08 141.84-34.38L141.84-19.8C141.84-18.12 141.96-15.52 142.2-12L142.38-9.72C142.6-6.32 142.74-5.28 142.74-3 142.74-1.44 143.22 0.78 144.3 0.78Z" transform="translate(-3.5399999618530273, 40.380001068115234)"></path></g> <!----> <!----> <!----> <!----> <!----> <!----> <!----></g></g> <!----></g>
</svg>
