<svg xmlns="http://www.w3.org/2000/svg" width="90%" height="15%" preserveAspectRatio="xMidYMid meet" viewBox="-2.753228613983083e-7 -2.753228613983083e-7 300 67.05621337890625" overflow="visible">
<rect width="100%" height="100%" fill="pink"/>
   <defs id="SvgjsDefs1002">
    <linearGradient id="SvgjsLinearGradient9zFPTabuF" gradientUnits="userSpaceOnUse" x1="10.000000000000012" y1="90" x2="90" y2="9.999999999999998">
      <stop id="SvgjsStop1010" stop-color="#fe95dd" offset="0.05"></stop>
      <stop id="SvgjsStop1011" stop-color="#fd17b4" offset="0.95"></stop>
    </linearGradient>
  </defs>
  <g id="SvgjsG1008" transform="scale(1.1547877500115478)" opacity="1">
    <g id="SvgjsG1012" class="-Nck2TpSl9" transform="translate(-7.2585, -7.2585) scale(0.72585)" light-content="false" non-strokable="true" fill="#ffffff">
      <path stroke="#ffffff" stroke-width="2" stroke-linecap="round" stroke-linejoin="round" stroke-miterlimit="10" d="M53.5 29.594a4.91 4.91 0 0 0 1.45-3.501 4.957 4.957 0 0 0-4.952-4.951 4.959 4.959 0 0 0-4.951 4.948h0c0 1.322.516 2.568 1.452 3.503L63.402 46.5l-3.5 3.498-16.904-16.903a9.88 9.88 0 0 1-2.901-7.005v.003c0-5.469 4.434-9.902 9.902-9.902 5.47 0 9.903 4.434 9.903 9.902a9.872 9.872 0 0 1-2.899 7.003L53.5 29.594zm16.904 23.908a4.916 4.916 0 0 0 3.502 1.451 4.957 4.957 0 0 0 4.949-4.951 4.956 4.956 0 0 0-4.945-4.953v.002a4.936 4.936 0 0 0-3.504 1.449L53.5 63.404l-3.501-3.5L66.906 43a9.88 9.88 0 0 1 7.004-2.901l-.004-.002c5.469 0 9.902 4.436 9.902 9.905s-4.435 9.902-9.902 9.902a9.869 9.869 0 0 1-7.002-2.9l3.5-3.502z"></path>
      <path stroke="#ffffff" stroke-width="2" stroke-linecap="round" stroke-linejoin="round" stroke-miterlimit="10" d="M29.594 46.5a4.918 4.918 0 0 0-3.502-1.451 4.956 4.956 0 0 0-4.951 4.949 4.957 4.957 0 0 0 4.948 4.955v-.002a4.929 4.929 0 0 0 3.503-1.451L46.5 36.597l3.499 3.5-16.905 16.904a9.887 9.887 0 0 1-7.005 2.901l.003.002c-5.471 0-9.902-4.436-9.902-9.906 0-5.468 4.432-9.901 9.902-9.901a9.88 9.88 0 0 1 7.004 2.899L29.594 46.5z"></path>
      <path fill="none" stroke="#ffffff" stroke-width="2" stroke-linecap="round" stroke-linejoin="round" stroke-miterlimit="10" d="M73.906 33.906v.004a15.957 15.957 0 0 0-10.458 3.879l-1.226-1.226a15.969 15.969 0 0 0 3.868-10.471C66.092 17.222 58.875 10 49.999 10c-8.873 0-16.092 7.222-16.092 16.093h0a15.976 15.976 0 0 0 3.88 10.459l-1.223 1.225a15.988 15.988 0 0 0-10.472-3.871C17.219 33.906 10 41.128 10 49.998c0 8.877 7.219 16.096 16.092 16.096v-.002a15.96 15.96 0 0 0 10.459-3.881l1.223 1.225a15.99 15.99 0 0 0-3.87 10.471C33.905 82.779 41.124 90 49.999 90s16.093-7.221 16.093-16.094h-.002c0-3.881-1.377-7.541-3.88-10.457l1.226-1.227a15.971 15.971 0 0 0 10.472 3.871C82.781 66.094 90 58.875 90 50.002c0-8.874-7.219-16.096-16.094-16.096z"></path>
      <path stroke="#ffffff" stroke-width="2" stroke-linecap="round" stroke-linejoin="round" stroke-miterlimit="10" d="M46.497 70.404a4.924 4.924 0 0 0-1.449 3.502 4.957 4.957 0 0 0 4.951 4.951 4.957 4.957 0 0 0 4.952-4.947h-.002a4.936 4.936 0 0 0-1.45-3.504L36.594 53.5l3.5-3.502 16.904 16.908A9.872 9.872 0 0 1 59.9 73.91l.002-.004c0 5.469-4.437 9.902-9.904 9.902-5.471 0-9.904-4.435-9.904-9.902a9.867 9.867 0 0 1 2.901-7.002l3.502 3.5z"></path>
      <path fill="none" stroke="#ffffff" stroke-width="2" stroke-linecap="round" stroke-linejoin="round" stroke-miterlimit="10" d="M49.991 59.904l-9.903-9.906 9.904-9.9 9.903 9.905z"></path>
    </g>
    <g id="SvgjsG1013" class="text" transform="translate(170.92800061035155, 51.298999084472655) scale(1)" light-content="false" fill="#ffffff">
      <path d="M-60.03 -1.46L-60.91 -12.42C-63.45 -12.5 -65.98 -12.54 -68.5 -12.54C-71.02 -12.54 -73.56 -12.58 -76.14 -12.66C-76.06 -15.12 -75.98 -17.57 -75.88 -20.01C-75.78 -22.45 -75.65 -24.9 -75.5 -27.36C-75.3 -30.29 -75.02 -33.21 -74.65 -36.12C-74.28 -39.03 -73.88 -41.93 -73.45 -44.82C-76.03 -44.63 -78.58 -44.47 -81.12 -44.36C-83.66 -44.24 -86.24 -44.16 -88.86 -44.12C-88.54 -36.62 -88.33 -29.19 -88.21 -21.83C-88.1 -14.46 -87.94 -7.05 -87.74 0.41C-83.1 0.14 -78.48 -0.16 -73.89 -0.47C-69.3 -0.78 -64.68 -1.11 -60.03 -1.46Z M-31.9 -43.01C-36.2 -42.7 -40.45 -42.43 -44.65 -42.22C-48.85 -42 -53.08 -41.82 -57.33 -41.66C-57.26 -40.02 -57.19 -38.39 -57.13 -36.77C-57.07 -35.15 -57 -33.52 -56.92 -31.87L-51.36 -31.17C-51.08 -27.54 -50.82 -23.93 -50.57 -20.33C-50.31 -16.74 -50.09 -13.11 -49.89 -9.43L-53.7 -9.37C-53.58 -7.46 -53.51 -5.58 -53.47 -3.72C-53.43 -1.87 -53.41 0.02 -53.41 1.93L-32.37 1.58C-32.57 0.64 -32.7 -0.31 -32.75 -1.29C-32.81 -2.27 -32.84 -3.24 -32.84 -4.22L-32.84 -7.73C-32.84 -8.91 -32.8 -10.06 -32.72 -11.19L-38.7 -11.31C-38.74 -12.95 -38.77 -14.56 -38.79 -16.14C-38.81 -17.72 -38.82 -19.34 -38.82 -20.98C-38.82 -22.34 -38.81 -23.69 -38.79 -25.02C-38.77 -26.35 -38.74 -27.7 -38.7 -29.06L-32.2 -28.83C-32.12 -31.17 -32.1 -33.53 -32.14 -35.89C-32.18 -38.25 -32.1 -40.62 -31.9 -43.01Z M9.4 -34.1C9.4 -35.74 9.37 -37.35 9.29 -38.94C9.21 -40.52 9.09 -42.15 8.94 -43.83C3.12 -43.98 -2.69 -44.17 -8.47 -44.38C-14.25 -44.6 -20.07 -44.77 -25.93 -44.88L-25.81 -36.33C-25.77 -33.48 -25.69 -30.61 -25.58 -27.71C-24.91 -27.68 -24.26 -27.66 -23.61 -27.66L-21.65 -27.66C-20.48 -27.66 -19.32 -27.68 -18.16 -27.71C-17.01 -27.75 -15.87 -27.79 -14.74 -27.83C-14.58 -25.45 -14.44 -23.08 -14.33 -20.71C-14.21 -18.35 -14.15 -16 -14.15 -13.65C-14.15 -11.31 -14.18 -8.96 -14.24 -6.59C-14.3 -4.23 -14.37 -1.86 -14.44 0.53C-13.97 0.53 -13.5 0.54 -13.01 0.56C-12.52 0.58 -12.02 0.59 -11.51 0.59C-10.11 0.59 -8.7 0.56 -7.29 0.5C-5.89 0.44 -4.48 0.37 -3.08 0.29C-2.88 -2.4 -2.71 -5.11 -2.58 -7.82C-2.44 -10.54 -2.37 -13.26 -2.37 -16C-2.37 -18.22 -2.33 -20.45 -2.26 -22.68C-2.18 -24.9 -2.06 -27.15 -1.9 -29.41L9.4 -30Z M60.09 -10.31C60.09 -11.48 59.88 -12.69 59.47 -13.92C59.06 -15.15 58.51 -16.32 57.8 -17.43C57.1 -18.54 56.27 -19.52 55.31 -20.36C54.36 -21.2 53.31 -21.82 52.18 -22.21C50.93 -22.6 49.46 -22.94 47.78 -23.23C46.1 -23.53 44.36 -23.77 42.54 -23.96C40.72 -24.16 38.95 -24.34 37.21 -24.49C35.47 -24.65 33.96 -24.79 32.67 -24.9C32.51 -24.9 32.09 -24.94 31.41 -25.02C30.72 -25.1 30 -25.18 29.24 -25.25C28.48 -25.33 27.78 -25.41 27.16 -25.49C26.53 -25.57 26.2 -25.63 26.16 -25.66C26.01 -25.86 25.92 -26.13 25.9 -26.48C25.88 -26.84 25.87 -27.13 25.87 -27.36C25.87 -27.83 25.89 -28.29 25.93 -28.74C25.97 -29.19 26.08 -29.63 26.28 -30.06L27.1 -30.12C27.65 -30.16 28.29 -30.21 29.03 -30.26C29.78 -30.32 30.55 -30.37 31.35 -30.41C32.15 -30.45 32.78 -30.47 33.25 -30.47C37 -30.63 40.72 -30.73 44.41 -30.79C48.11 -30.85 51.81 -30.92 55.52 -31C55.4 -32.13 55.28 -33.27 55.17 -34.42C55.05 -35.58 54.99 -36.72 54.99 -37.85C54.99 -38.98 55 -40.11 55.02 -41.22C55.04 -42.33 55.07 -43.46 55.11 -44.59C52.29 -45.14 49.48 -45.59 46.67 -45.94C43.86 -46.29 41.01 -46.46 38.12 -46.46C35.65 -46.46 33.09 -46.29 30.41 -45.94C27.73 -45.59 25.22 -44.96 22.88 -44.06C21.51 -43.52 20.36 -42.82 19.42 -41.98C18.49 -41.14 17.71 -40.18 17.11 -39.08C16.5 -37.99 16.06 -36.81 15.79 -35.54C15.52 -34.27 15.38 -32.93 15.38 -31.52C15.38 -30.66 15.47 -29.61 15.64 -28.36C15.82 -27.11 16.11 -25.87 16.52 -24.64C16.93 -23.41 17.48 -22.31 18.16 -21.36C18.85 -20.4 19.68 -19.79 20.65 -19.51C21.67 -19.2 22.77 -18.98 23.96 -18.87C25.16 -18.75 26.32 -18.63 27.45 -18.52C29.95 -18.32 32.44 -18.18 34.92 -18.11C37.4 -18.03 39.89 -17.89 42.39 -17.7C42.43 -17.7 42.57 -17.69 42.8 -17.67C43.04 -17.65 43.29 -17.63 43.56 -17.61C43.84 -17.59 44.08 -17.56 44.3 -17.52C44.51 -17.48 44.64 -17.44 44.68 -17.4C44.91 -17.01 45.09 -16.51 45.21 -15.91C45.32 -15.3 45.38 -14.79 45.38 -14.36C45.38 -14.12 45.36 -13.86 45.32 -13.56C45.28 -13.27 45.19 -13.05 45.03 -12.89C44.83 -12.73 44.55 -12.62 44.18 -12.54C43.81 -12.46 43.41 -12.4 42.98 -12.36C42.55 -12.32 42.14 -12.3 41.75 -12.3L40.87 -12.3C39.7 -12.3 38.54 -12.32 37.38 -12.36C36.23 -12.4 35.09 -12.44 33.96 -12.48C31.03 -12.56 28.11 -12.63 25.2 -12.69C22.29 -12.74 19.37 -12.81 16.44 -12.89C16.79 -8.98 16.9 -5.04 16.79 -1.05C19.25 -0.9 21.68 -0.78 24.08 -0.7C26.48 -0.63 28.92 -0.59 31.38 -0.59C32.82 -0.59 34.62 -0.61 36.77 -0.64C38.92 -0.68 41.1 -0.77 43.33 -0.91C45.56 -1.04 47.71 -1.28 49.78 -1.61C51.85 -1.94 53.56 -2.4 54.93 -2.99C56.57 -3.69 57.84 -4.62 58.74 -5.77C59.64 -6.92 60.09 -8.44 60.09 -10.31Z M88.86 -43.01C84.56 -42.7 80.31 -42.43 76.11 -42.22C71.91 -42 67.69 -41.82 63.43 -41.66C63.51 -40.02 63.57 -38.39 63.63 -36.77C63.69 -35.15 63.76 -33.52 63.84 -31.87L69.4 -31.17C69.68 -27.54 69.94 -23.93 70.2 -20.33C70.45 -16.74 70.67 -13.11 70.87 -9.43L67.06 -9.37C67.18 -7.46 67.26 -5.58 67.29 -3.72C67.33 -1.87 67.35 0.02 67.35 1.93L88.39 1.58C88.19 0.64 88.07 -0.31 88.01 -1.29C87.95 -2.27 87.92 -3.24 87.92 -4.22L87.92 -7.73C87.92 -8.91 87.96 -10.06 88.04 -11.19L82.06 -11.31C82.02 -12.95 81.99 -14.56 81.97 -16.14C81.95 -17.72 81.94 -19.34 81.94 -20.98C81.94 -22.34 81.95 -23.69 81.97 -25.02C81.99 -26.35 82.02 -27.7 82.06 -29.06L88.56 -28.83C88.64 -31.17 88.66 -33.53 88.62 -35.89C88.58 -38.25 88.66 -40.62 88.86 -43.01Z"></path>
    </g>
  </g>
</svg>
